<svg xmlns="http://www.w3.org/2000/svg" xmlns:xlink="http://www.w3.org/1999/xlink" aria-hidden="true" role="img" class="iconify iconify--logos" width="31.88" height="32" preserveAspectRatio="xMidYMid meet" viewBox="0 0 256 257"><defs><linearGradient id="IconifyId1813088fe1fbc01fb466" x1="-.828%" x2="57.636%" y1="7.652%" y2="78.411%"><stop offset="0%" stop-color="#41D1FF"/><stop offset="100%" stop-color="#BD34FE"/></linearGradient><linearGradient id="IconifyId1813088fe1fbc01fb467" x1="43.376%" x2="50.316%" y1="2.242%" y2="89.03%"><stop offset="0%" stop-color="#FFEA83"/><stop offset="8.333%" stop-color="#FFDD35"/><stop offset="100%" stop-color="#FFA800"/></linearGradient></defs><path fill="#41D1FF" d="M255.153 37.938L134.897 252.976c-2.483 4.44-8.862 4.466-11.382.048L.875 37.958c-2.746-4.814 1.371-10.646 6.827-9.67l120.385 21.517a6.537 6.537 0 0 0 2.322-.004l117.867-21.483c5.438-.991 9.574 4.796 6.877 9.62Z"/><path fill="#BD34FE" d="M185.432 0L47.318 17.451a3.268 3.268 0 0 0-2.635 3.014l-5.31 119.922a3.268 3.268 0 0 0 3.458 3.44l64.478-5.238a3.268 3.268 0 0 1 3.58 3.327l-1.044 58.004a3.268 3.268 0 0 0 5.232 2.672l34.955-26.696a3.268 3.268 0 0 1 4.002-.017l33.714 26.696a3.268 3.268 0 0 0 5.233-2.672l-1.044-58.004a3.268 3.268 0 0 1 3.58-3.327l64.478 5.238a3.268 3.268 0 0 0 3.458-3.44L211.8 20.465A3.268 3.268 0 0 0 209.165 17.45L171.068 5.24a3.268 3.268 0 0 0-3.922 2.726l-6.81 41.518a3.268 3.268 0 0 1-4.582 2.37l-28.38-14.28a3.268 3.268 0 0 0-4.766 3.17l3.268 57.312a3.268 3.268 0 0 1-4.766 3.17l-28.38-14.28a3.268 3.268 0 0 0-4.582 2.37l-6.81 41.518a3.268 3.268 0 0 1-3.922 2.726L47.318 89.902a3.268 3.268 0 0 0-3.922 2.726l-5.31 119.922a3.268 3.268 0 0 0 3.458 3.44l64.478-5.238a3.268 3.268 0 0 1 3.58 3.327l-1.044 58.004a3.268 3.268 0 0 0 5.232 2.672l34.955-26.696a3.268 3.268 0 0 1 4.002-.017l33.714 26.696a3.268 3.268 0 0 0 5.233-2.672l-1.044-58.004a3.268 3.268 0 0 1 3.58-3.327l64.478 5.238a3.268 3.268 0 0 0 3.458-3.44L211.8 92.628a3.268 3.268 0 0 0-2.635-3.014l-138.114-17.451a3.268 3.268 0 0 1-2.635-3.014L63.506 3.014A3.268 3.268 0 0 1 66.14 0H185.432Z"/></svg>